<svg version="1.0" xmlns="http://www.w3.org/2000/svg" width="1866.667" height="1866.667" viewBox="0 0 1400 1400"><path d="M567 329.4c-14.5 3.1-30.4 10.9-40.4 19.8-6.2 5.5-7.6 9.1-5.2 13.7 3.5 6.7 9.1 6.8 17.2.5 8.3-6.4 16.5-10.8 26.4-13.9 7.3-2.4 10.2-2.8 20.5-2.8 16.5-.1 29.6 3.8 42 12.3 6.5 4.5 10.3 4.9 14.3 1.5 2.7-2.2 3.2-3.4 3.2-7 0-3.4-.6-4.8-3-7.2-4.2-4.1-18.8-11.6-29-14.8-7.5-2.5-10.4-2.8-24-3.1-10.5-.2-17.6.1-22 1zM771.1 329c-18.4 3.8-42.3 17-47.1 26-1.7 3.2-.4 8.5 2.7 11 4.3 3.4 8 2.6 16.1-3.5 14.9-11.2 28.6-15.8 46.7-15.9 15.5 0 28.9 4.1 41.2 12.5 6.3 4.4 11.5 4.6 14.9.6 1.6-1.9 2.4-4 2.4-6.7 0-3.3-.6-4.4-4.2-7.5-5.3-4.5-22.1-12.7-30.8-15-7.5-2-34.7-3-41.9-1.5zM642.7 424.1c-10 2.3-17.7 9.5-23.5 21.7-3.2 6.6-3.7 8.8-4 16.7-.3 7.3 0 10.2 1.8 15.5 2.5 7.7 8.2 17.7 15.7 27.7 6.6 8.8 26.1 27.6 37.1 35.8 4.5 3.3 8.1 6.2 8.1 6.5.1.3-2.2 3.6-5.1 7.4-12.5 16.7-31.4 25.5-51.8 24.3-19.3-1.3-40-11.6-54.5-27.3-2.8-3-6.4-5.8-8.1-6.3-7.3-2.1-14 5.2-11.1 12.1 1.8 4.2 16.3 18.1 24.7 23.6 16 10.5 33.1 16.1 50.8 16.6l10.3.3 3.6 6.4c7.6 13.9 20.6 24.7 34.6 29.1 9.1 2.9 23.3 3 32.2.4 16.5-4.9 29.6-16.2 37.4-32.2 3.3-6.8 3.4-6.9 9.6-5.4 2.2.6 9.7 1 16.6 1 21 0 38.7-5.9 53.5-17.8 10.2-8.2 21.1-23.6 22.1-31.1.5-3.5.2-4.4-2.5-7.1-3.5-3.4-8.3-4-12-1.4-1.2.8-3.6 4.3-5.4 7.7-1.9 3.8-5.8 8.9-10.2 13.3-13.9 13.9-34.3 20.4-55 17.5-19.4-2.7-35.5-12-47.1-27.1l-4.4-5.7 8.2-6.4c16.9-13 33.1-30.5 43.2-46.4 11.2-17.7 12.3-35.5 3-52-8.4-15-19.3-20-36.9-17-11.5 2-20.2 6.2-27 13l-5.4 5.3-5.5-5.2c-6.8-6.4-15.8-10.9-25.9-13-8.5-1.8-11.4-1.8-17.1-.5zM447.9 741.2c-1 1.8-1.5 38-.5 39.7.2.3-.1 20.4-.5 44.5-.8 40.6-.7 44.1.8 45.9 1.2 1.2 2.4 1.6 3.8 1.2 1.1-.4 5.2-.6 9-.5 11.2.2 10.9.8 10.6-21.6-.1-10.4-.4-20.3-.6-21.9-.3-1.7-.1-10.8.3-20.3l.7-17.2 2.7 2.7c1.5 1.6 5.1 5.7 8 9.3 2.9 3.6 12.5 13.8 21.5 22.8 8.9 8.9 17 17.4 17.9 18.8 1 1.4 3.5 3.4 5.6 4.5 2.4 1.2 5.2 3.9 7.3 7.2 4 6.3 12.1 14.1 17 16.4 3.3 1.6 3.6 1.6 5.2 0 1.4-1.3 1.8-4 2-12.9.2-6.2.4-12.2.5-13.3.1-1.1-.2-9.9-.6-19.5-.4-9.6-.7-31.8-.7-49.3 0-17.8-.4-32.9-.9-34.3-1-2.5-1-2.5-11.7-2.1l-10.8.4-.5 14.9c-.4 11.9 0 29.2 1.1 44.4.1 2.7-1.4 20-1.8 20-1.3 0-13.4-11.7-19.1-18.5-3.7-4.4-9.6-11.1-13.3-15-3.6-3.8-8.9-10-11.8-13.7-4.9-6.1-10-10.9-15.7-14.8-1.2-.8-4.3-4.3-6.9-7.8-5.5-7.3-9.7-10.7-14.2-11.5-2.6-.5-3.5-.2-4.4 1.5zm12.8 37c-.2 1.3-.4.5-.4-1.7-.1-2.2.1-3.2.4-2.3.2 1 .2 2.8 0 4zm39.8 26.9c1.1 1.7-.1 2.1-1.5.4-.8-.9-.8-1.5-.2-1.5.6 0 1.4.5 1.7 1.1zm-40.8 23.1c-.3.7-.5.2-.5-1.2s.2-1.9.5-1.3c.2.7.2 1.9 0 2.5zm88 7.5c-.3 1-.5.2-.5-1.7s.2-2.7.5-1.8c.2 1 .2 2.6 0 3.5zm-17.2 6.3c1 1.1 1.6 2 1.3 2-.3 0-1.3-.9-2.3-2-1-1.1-1.6-2-1.3-2 .3 0 1.3.9 2.3 2zM906.5 740.9c-10 2.2-16.6 5.2-22.9 10.4-5.9 5-8.1 9.8-10.1 22.1-.8 5-2.2 12.7-3 17.1-1.2 6.1-1.6 15.9-1.7 41.6-.2 41.4-1 38.9 12.2 38.9 11.8 0 12-.2 12.3-17.7l.2-13 8.5-.6c11.2-.8 50.2.3 51.4 1.4 1.6 1.5 2.5 13.1 1.6 19.7-1 7.4-.6 9 2.7 10.3 3.7 1.4 17.9 1.1 19.1-.4 1-1.2 2.9-47 2.3-57.2-.1-2.8-.4-10-.6-16-.8-25.3-3.3-32.9-14.3-44-8.5-8.6-13.8-11.2-26.4-13-13.1-1.9-21.2-1.7-31.3.4zm28.6 23.1c9.9 4.1 11.2 5.1 14.5 10.7 2.2 3.8 2.9 6.6 3.5 13.8.4 4.9 1.1 12.6 1.5 17 .4 4.9.2 9.6-.5 12l-1 4h-59.6l-.3-13.9c-.3-13.6 1.2-23.6 5-33.6 1.6-4.4 5.9-7.9 12.2-9.9 12.1-3.9 15.3-3.9 24.7-.1zm35.6 42.2c-.3.8-.6.5-.6-.6-.1-1.1.2-1.7.5-1.3.3.3.4 1.2.1 1.9zm-24.9 21.5c-1 .2-2.6.2-3.5 0-1-.3-.2-.5 1.7-.5s2.7.2 1.8.5zm-62.1 30c-.3 1-.5.4-.5-1.2 0-1.7.2-2.4.5-1.8.2.7.2 2.1 0 3zM1034 739.7c-1.4.3-3 .9-3.6 1.4-1 .9-2 34.7-1.6 54.4.1 3.3.2 21.4.2 40.2 0 25.5.4 34.4 1.3 35.1 2.3 1.8 6.3 2.1 13.8 1.3 4.1-.4 18-.4 30.9.1 12.9.5 24.6 1 26 1 4.8.2 12-1.3 13.5-2.8 1.1-1.1 1.5-3.7 1.5-9.5 0-6.6-.3-8.2-2-9.9-1.8-1.8-2.9-2-8-1.4-3.2.3-16.5.3-29.4-.1l-23.5-.7-.2-6.7c-.4-11.8-.3-19 .3-57.1.7-42.6.6-43.1-5.9-44.9-3.8-1.1-8.7-1.2-13.3-.4zm2.7 33.5c-.3.8-.6.5-.6-.6-.1-1.1.2-1.7.5-1.3.3.3.4 1.2.1 1.9zm67 84.4c-.3.3-1.2.4-1.9.1-.8-.3-.5-.6.6-.6 1.1-.1 1.7.2 1.3.5zM804.7 741.2c-.9.7-2.4 3.9-3.2 7.1-.8 3.2-3.4 8.5-5.6 11.9-2.3 3.3-6.6 11.3-9.7 17.7-3.1 6.4-7.9 15.2-10.7 19.6-2.8 4.4-6.4 10.9-7.9 14.4-1.5 3.6-3.9 8.3-5.5 10.5-1.5 2.3-3.9 5.8-5.4 7.9l-2.6 3.9-2.4-4.9c-1.3-2.6-4.8-8.7-7.8-13.5-3-4.8-6.9-11.1-8.7-14-1.8-2.9-4.4-6.8-5.7-8.7-1.4-1.8-2.9-4.9-3.4-6.9-.9-3.1-5-10.1-14.8-24.8-1.8-2.8-3.3-5.5-3.3-6 0-1.3-4.9-10.6-6.8-12.7-1.9-2.2-10.4-2.4-12.2-.2-.9 1.1-1.3 11.1-1.5 38.7-.2 20.5-.8 44-1.4 52.3-.6 8.2-1.1 20-1.1 26.1 0 14.6.3 14.9 13.1 14.2 5-.3 9.5-1 10-1.5.8-.8 1.5-25.8 1.8-62.3.1-6.5.3-7.2 1.5-6 .8.8 6.6 11.7 12.9 24.1 6.3 12.5 12.8 24.8 14.6 27.4 1.7 2.6 4.5 7.6 6.1 11.1 3.2 7.2 6.3 9.4 10.8 7.8 2.9-1 4.9-4.4 12.3-21.8 2.4-5.5 6.4-12.7 8.9-16 6.4-8.4 8.8-12.6 10.4-18.1 1.6-5.1 8.4-15.7 9.7-14.9.8.5.5 30-.7 50-1 18.1.8 20.4 15.5 20.4 10.5 0 10.6-.2 9.5-13.3-.6-5.7-.6-13.2-.1-17.1.4-3.8.5-7.7.1-8.5-.8-2.1-2.7-47.7-2.9-71.1-.2-21.8-.1-20.4-2.1-22.4-1.9-1.9-9.3-2.1-11.7-.4zm-110.8 41c0 2.8-.2 3-.9 1.3-1.2-2.8-1.2-4.5 0-4.5.6 0 1 1.5.9 3.2zM777 805c-.6 1.2-1.4 1.9-1.7 1.7-.2-.3.1-1.5.7-2.7.6-1.2 1.4-1.9 1.7-1.7.2.3-.1 1.5-.7 2.7zm-30.1 53c1.1 2.4 1.1 2.4-.3.6-.9-1.1-1.6-2.4-1.6-3 0-1.2.5-.7 1.9 2.4zm53.8 4.7c-.3 1-.5.4-.5-1.2 0-1.7.2-2.4.5-1.8.2.7.2 2.1 0 3zM343.2 743.4c-1.1 1.4-3 5.8-4.3 9.8-1.3 4-4.8 11.1-7.7 15.8-2.9 4.7-6 10.3-6.9 12.5-.9 2.2-4.4 9.2-7.7 15.5-11.2 21.5-14.4 28.6-17.1 37.5-2.8 9.1-7.4 19.1-12.7 27.7-5.3 8.5-2.6 10.9 10.9 9.6 8-.8 9-1.2 11.4-3.9 1.4-1.6 3.8-6.5 5.3-10.8 1.5-4.4 3.3-8.7 3.9-9.5 1.4-1.8 12.8-2.2 39.6-1.4l16.4.5 2.8 5.4c1.5 3 3.5 7.7 4.3 10.5 2.3 7.5 3.8 8.5 14.8 9.1 11.3.7 14.2-.3 13.2-4.5-.4-1.5-1.9-4.3-3.5-6.4-3.4-4.3-4.4-6.5-10.4-22.3-2.6-6.6-6.9-16.3-9.7-21.4-2.7-5.2-5.9-11.8-7-14.5-1-2.8-3.4-8-5.2-11.6-1.9-3.6-3.7-7.6-4.1-9-.4-1.4-4.2-9.5-8.4-18.1-4.2-8.6-8.3-17.1-9.1-19-2-4.5-5.9-5.1-8.8-1.5zM356 762c0 .5-.5 1-1.1 1-.5 0-.7-.5-.4-1 .3-.6.8-1 1.1-1 .2 0 .4.4.4 1zm-19.4 12.8c-.9 1.7-2.1 3.4-2.7 3.7-.6.4-.1-1.2 1.1-3.5 1.2-2.3 2.4-4 2.6-3.7.3.3-.2 1.9-1 3.5zm16 22.8c2.5 6.5 5.1 12.5 5.8 13.4.8.8 2.7 4.8 4.4 8.7l3 7.3h-18.4c-15.4 0-18.4-.2-18.4-1.5 0-1.8 6.9-17.9 11.4-26.5 1.9-3.6 4-8.4 4.7-10.8.7-2.4 1.6-3.9 2.1-3.4s2.9 6.2 5.4 12.8zm47.8 66c.3.8.2 1.2-.4.9-.6-.3-1-1-1-1.6 0-1.4.7-1.1 1.4.7zM612.1 742.9c-1 .7-1.2 3.3-.7 12.7.8 16.7.8 15.3.2 62.9-.3 23.6-.8 44.6-1.2 46.6-1.1 6.1.9 7 13.4 6.7l10.7-.3.2-52c.1-28.6.5-57.3.8-63.7.6-11 .5-11.7-1.4-12.7-2.3-1.3-20-1.4-22-.2zM1038.7 934.2c-10.7 2.2-21.1 10.7-28.4 23.2-4.5 7.5-4.8 8.5-4.5 14.1.4 10.3 2.5 15.4 9.7 23.8 7.3 8.5 11.8 11.6 22 14.6 8.9 2.7 16.3 6.3 24.2 11.8 5.6 4 6.3 4.8 6.8 8.8.4 2.3.4 5.2.1 6.3-2 6.3-11.5 12.2-19.7 12.2-8 0-24.8-4.8-30-8.6-6.2-4.5-8.5-4.4-10.5.3-.9 2.1-2.5 5.7-3.5 8.1-2.6 5.8-2.5 9.8.4 11.6 1.2.8 7.2 3.3 13.2 5.6 9.2 3.5 12.9 4.4 23.1 5.3 14.2 1.3 19.6.2 32.9-6.5 10.2-5.2 10.9-5.8 15.1-14.3 5.4-11 5.6-22.1.4-32.5-1.8-3.5-9.4-11.2-16.1-16.3-5.1-3.9-24.4-13.5-31.4-15.7-7.1-2.3-9.2-4.4-10.6-11-1-4.6-.8-5.3 1.7-9.8 3.4-6 5.2-7.2 11.8-7.9 5.9-.6 22.4 2.8 28.4 5.8 3.1 1.6 3.9 1.7 5.6.5 1.2-.7 2.4-2.9 2.7-4.7.3-1.9 1.3-4.8 2.2-6.6 4.3-8.2.7-10.7-22.3-15.8-13.5-2.9-18.1-3.4-23.3-2.3zm15.6 9.5c-.7.2-1.9.2-2.5 0-.7-.3-.2-.5 1.2-.5s1.9.2 1.3.5zm7.4-.1c-.3.3-1.2.4-1.9.1-.8-.3-.5-.6.6-.6 1.1-.1 1.7.2 1.3.5zm-43.3 32c.5 1.4.4 1.5-.9.4-1.7-1.4-1.9-2-.6-2 .5 0 1.2.7 1.5 1.6zM470.5 935.6c-2.7.7-7.1 1.4-9.6 1.4-6.2 0-13.7 2.4-19 6-2.4 1.6-5.3 3-6.3 3-3.2 0-17.1 15.6-20.7 23-7.4 15.3-8.3 18.7-8.4 31-.1 14.9.8 20.3 4.4 26.1 1.6 2.6 3.2 6.2 3.6 8.1.9 3.8 13.3 16.8 23 23.9 10.1 7.4 35.1 13.8 47.9 12.4 17.2-2 39.1-13.3 47.1-24.2 8.5-11.8 10.8-16.6 11.3-23.3.2-3.6 1-8.4 1.8-10.8 2.2-6.7 1.7-13.9-1.6-24.2-1.6-5.1-3-10.9-3-12.9 0-5.6-4.1-13.1-10-18.4-9.4-8.4-20.9-16.6-24.8-17.5-23.8-5.7-27.1-6-35.7-3.6zm23.5 24.8c5.6 3 11.5 7.2 14.5 10.1 11.2 11.3 15.5 33.8 9.6 49.6-2.2 5.7-9.9 16.7-13.8 19.5-4.7 3.5-14.9 8.5-18.4 9-4.8.8-21.5-2.9-29.2-6.4-7.5-3.5-14.9-9.8-16.7-14.5-.7-1.7-2.8-6.7-4.7-11-3.1-6.9-3.4-8.4-2.8-13 .4-2.9.9-7.5 1-10.3.2-5 2.7-11.2 8.8-21.8 4.4-7.6 10.5-10.7 33.2-16.6 4.6-1.2 8.2-.2 18.5 5.4zm-67.7 8.1c-.3.9-.8 1.4-1 1.1-.3-.3-.2-.9.2-1.5.9-1.6 1.5-1.3.8.4zm101.7 8.4c-.1 1-.6.7-1.5-.9-1.9-3.3-1.8-5 0-2.6.8 1.1 1.5 2.7 1.5 3.5zM299.8 936.7c-1.2 1.5-1.4 10.9-1.3 65.1.1 74.4-1.5 66.8 13.5 65.7 5.2-.4 10.2-.7 11-.7 6.2.3 43.8 1.4 49 1.5 3.7 0 7.9-.6 9.5-1.4 2.9-1.4 3-1.6 3.3-9.9.4-12.5.7-12.2-16.9-12.1-7.9.1-21.4-.1-30-.5l-15.5-.7-.3-8.1c-.4-11-.4-10.7 0-56.4l.4-40.4-2.4-1.9c-3.3-2.7-18-2.8-20.3-.2zm5.9 32.5c-.3.7-.5.2-.5-1.2s.2-1.9.5-1.3c.2.7.2 1.9 0 2.5zm67.6 83.5c-.7.2-1.9.2-2.5 0-.7-.3-.2-.5 1.2-.5s1.9.2 1.3.5zM569.4 937.3c-.3.9 1 5 3 9.1s3.6 7.7 3.6 8c0 .4 3.8 8.3 8.5 17.7 4.7 9.4 8.5 17.9 8.5 18.9 0 .9 1.2 3.5 2.7 5.6 3.4 5.1 7.6 14.4 9.7 21.7.9 3.2 3.7 9.5 6.2 14s5.5 10.4 6.6 13.2c1.1 2.7 2.8 6.3 3.7 8 1 1.6 2.6 5.1 3.6 7.7 3.2 8.5 9 12.2 12.8 8 .9-1 2.6-4.5 3.7-7.7s3.3-7.9 4.9-10.4c1.6-2.5 3.2-6 3.6-7.6.3-1.7 3.5-8.2 7-14.5 3.5-6.3 7.3-14.4 8.4-17.9 1.2-3.5 4.1-9.8 6.5-14 2.4-4.2 4.9-9.9 5.5-12.8 1.1-5.5 13.2-33.7 15.6-36.3 2.7-2.9 3.5-6.6 1.9-8.8-1.2-1.8-2.3-2-12.1-1.8-10.3.2-10.8.3-12 2.6-3.2 6.2-14.9 33.5-18.4 42.8-2.1 5.7-4.7 11.5-5.8 13-2.4 3.4-7.1 14.6-7.1 16.9 0 1.9-4.8 9.3-6.1 9.3-.5 0-2.4-3.3-4.3-7.3-1.9-3.9-4.6-9.2-6-11.7-3-5.2-11.2-22.8-13.2-28-3.2-8.5-8.1-19.8-10-23-1.1-1.9-2.7-5.5-3.4-7.9-2-6.3-4.5-7.5-16.7-7.9-8.6-.4-10.4-.2-10.9 1.1zm17.5 15.7c1.1 2.4 1.1 2.4-.3.6-.9-1.1-1.6-2.4-1.6-3 0-1.2.5-.7 1.9 2.4zm22.7 56.2c1.4 2.8 1.5 3.1.2 2-1.4-1.1-3.1-5.2-2.2-5.2.2 0 1.1 1.5 2 3.2zm47 4.5c-1.8 3.3-2.1 2.6-.6-1.3.6-1.5 1.3-2.4 1.6-2.1.3.3-.1 1.8-1 3.4zM622 1028c.6 1.1.8 2 .6 2-.3 0-1-.9-1.6-2-.6-1.1-.8-2-.6-2 .3 0 1 .9 1.6 2zM735.6 937.5c-1.3 1.4-1.6 4.5-1.8 18.8-.2 9.5-.2 19.7-.2 22.7s.2 23.6.3 45.7c.2 29.3.6 40.4 1.4 41.1.7.5 19.7.8 42.2.8l41-.1.3-8.6c.4-12.2 1.2-11.8-20.6-11.8-9.7 0-18.6-.1-19.7-.2-1.1-.1-5.2.2-9.2.6-5.9.6-7.7.5-9.7-.9-2.5-1.6-2.5-1.6-2.1-14.7.2-7.2.6-13.3.9-13.6.7-.7 30.1-1.6 43.3-1.3l10.1.2.7-9.6c.5-7 .4-10-.5-11.1-1-1.2-4.4-1.4-18.9-1.4-9.7.1-21.3.1-25.9 0l-8.4-.1.3-7.8c.1-4.2-.2-11.1-.6-15.3-.4-4.2-.5-8.9-.1-10.4.6-2.5 1-2.7 4.3-2 2.1.4 15.3.8 29.5 1l25.8.4.1-2.2c0-1.2.2-5.1.4-8.7.3-4-.1-7.5-.8-9l-1.3-2.5-21.4-.1c-11.8 0-29.7-.4-39.6-.8-16.1-.6-18.3-.5-19.8.9zM795 944c0 .5-.7 1-1.5 1s-1.5-.5-1.5-1c0-.6.7-1 1.5-1s1.5.4 1.5 1zm-54.3 25.2c-.3.8-.6.5-.6-.6-.1-1.1.2-1.7.5-1.3.3.3.4 1.2.1 1.9zm25 38.4c-.3.3-1.2.4-1.9.1-.8-.3-.5-.6.6-.6 1.1-.1 1.7.2 1.3.5zM866.9 938.2c-.8 1.5-.9 7.2-.4 19.2.5 11.8.3 20.3-.5 27-1 7.9-1 11.5 0 18 .9 6 1 14.2.4 32.2-.5 13.4-.5 26.2 0 28.7l.8 4.7h11.3c7 0 11.6-.4 12-1.1.4-.6.6-7.2.6-14.8-.1-7.5.1-15.6.5-17.9l.7-4.2h20.5l3.6 4.2c2 2.2 5.9 8.3 8.7 13.4 6.2 11.1 10.4 15.4 18.6 18.8 5.1 2.1 7.9 2.6 14.8 2.6 12.4 0 12.5-.1 12.5-11.3 0-5.9-.4-9.7-1.2-10.5-.7-.7-3.5-1.2-6.2-1.2-6.2-.1-8.2-1.2-13.2-7.1-2.2-2.6-5.8-6.9-8.1-9.7l-4.3-5 4.8-3.1c5.5-3.5 12.6-11.7 15.3-17.6 6-13.4 4.4-38-3.1-48.5-2.7-3.8-15.4-12.3-22.4-14.9-6.2-2.3-13.5-2.9-43.8-3.6-20.3-.4-20.8-.4-21.9 1.7zm29.6 5.8c.3.5-.3 1-1.5 1s-1.8-.5-1.5-1c.3-.6 1-1 1.5-1s1.2.4 1.5 1zm45.1 12.1c.4.8.1.8-1.4 0-1.2-.6-2.4-1.6-2.8-2.2-.4-.8-.1-.8 1.4 0 1.2.6 2.4 1.6 2.8 2.2zm-18.4 5.2c5 2.5 8.6 6 9.2 8.9.2 1.2 1 5 1.7 8.3 1.9 8.8 1.5 13.7-1.2 18.2-5.7 9.3-11.5 11.6-29.6 11.8l-13.3.2.8-2.6c.4-1.4.7-4.6.6-7.1-.6-34-.6-37.1.7-38.6 1.9-2.4 25.9-1.7 31.1.9zm-49.2 7.3c0 .8-.5 1.2-1 .9-.6-.4-.8-1.1-.5-1.6.9-1.4 1.5-1.1 1.5.7zm67 45.9c0 .2-1 .9-2.2 1.5-2.2 1.1-2.2 1-.4-.4 2.1-1.7 2.6-1.9 2.6-1.1zm-8.9 25.2c1.3 1.6 1.2 1.7-.3.4-1-.7-1.8-1.5-1.8-1.7 0-.8.8-.3 2.1 1.3zm13.9 14.4c0 1.4-.5 1.1-3.1-1.7l-2.4-2.7 2.8 1.8c1.5.9 2.7 2.1 2.7 2.6z"/></svg>